<?xml version="1.0" encoding="utf-8"?>
<!-- Generator: Adobe Illustrator 25.4.1, SVG Export Plug-In . SVG Version: 6.00 Build 0)  -->
<svg version="1.1" id="Layer_1" xmlns="http://www.w3.org/2000/svg" xmlns:xlink="http://www.w3.org/1999/xlink" x="0px" y="0px"
	 viewBox="0 0 188.85 62.23" style="enable-background:new 0 0 188.85 62.23;" xml:space="preserve">
<style type="text/css">
	.st0{fill:#93D500;}
</style>
<g>
	<path d="M50.72,37.27c-1.36,0-2.57-0.23-3.64-0.69c-1.07-0.46-2.01-1.11-2.8-1.95c-0.83-0.9-1.46-1.95-1.89-3.17
		c-0.43-1.21-0.65-2.54-0.65-3.99c0-1.5,0.24-2.87,0.73-4.13c0.48-1.26,1.17-2.34,2.07-3.23c0.79-0.79,1.72-1.41,2.8-1.85
		c1.07-0.44,2.3-0.66,3.67-0.66c1.21,0,2.31,0.15,3.27,0.46c0.97,0.31,1.81,0.75,2.51,1.32c0.7,0.57,1.27,1.26,1.7,2.07
		c0.43,0.81,0.73,1.71,0.88,2.69h-4.54c-0.18-0.77-0.57-1.42-1.19-1.93c-0.62-0.51-1.44-0.77-2.48-0.77c-0.78,0-1.46,0.16-2.05,0.46
		c-0.59,0.31-1.08,0.73-1.47,1.27c-0.39,0.54-0.68,1.17-0.87,1.9c-0.19,0.73-0.29,1.53-0.29,2.39c0,0.86,0.11,1.66,0.33,2.4
		c0.22,0.74,0.53,1.38,0.94,1.91c0.41,0.54,0.9,0.96,1.49,1.25c0.59,0.3,1.25,0.45,1.99,0.45c0.61,0,1.17-0.09,1.65-0.28
		c0.48-0.18,0.9-0.43,1.24-0.74c0.34-0.31,0.62-0.66,0.82-1.06c0.2-0.39,0.33-0.8,0.38-1.23v-0.05H51.8v-3.43h7.87v10.14h-3.27
		l-0.26-2.27h-0.05c-0.62,0.97-1.38,1.66-2.28,2.07C52.89,37.07,51.86,37.27,50.72,37.27 M66.59,37.25c-1.57,0-2.75-0.46-3.55-1.39
		c-0.8-0.92-1.2-2.14-1.2-3.66v-8.87h4.28v7.98c0,0.74,0.17,1.31,0.5,1.7c0.33,0.4,0.85,0.59,1.53,0.59c0.74,0,1.32-0.25,1.74-0.75
		c0.42-0.5,0.63-1.16,0.63-1.97v-7.55h4.3v13.52h-4.12v-1.66h-0.08c-0.49,0.67-1.05,1.18-1.68,1.53
		C68.33,37.07,67.54,37.25,66.59,37.25 M77.28,17.79h4.3v3.67h-4.3V17.79z M77.28,23.33h4.3v13.52h-4.3V23.33z M89.35,37.27
		c-0.86,0-1.66-0.16-2.38-0.49c-0.72-0.33-1.35-0.8-1.88-1.41c-0.53-0.62-0.94-1.37-1.23-2.26c-0.29-0.89-0.44-1.9-0.44-3.02
		c0-1.06,0.15-2.02,0.44-2.91c0.29-0.88,0.7-1.63,1.21-2.26c0.52-0.62,1.14-1.11,1.86-1.47c0.72-0.35,1.52-0.53,2.4-0.53
		c0.95,0,1.72,0.18,2.3,0.54c0.58,0.36,1.07,0.82,1.48,1.39h0.08v-7.08h4.3v19.07h-4.12v-1.82h-0.05c-0.4,0.7-0.95,1.25-1.62,1.65
		C91.04,37.08,90.25,37.27,89.35,37.27 M90.46,33.87c0.9,0,1.6-0.35,2.1-1.06c0.5-0.7,0.75-1.61,0.75-2.72
		c0-0.56-0.06-1.09-0.17-1.57c-0.11-0.48-0.29-0.9-0.53-1.24c-0.24-0.34-0.53-0.61-0.87-0.81c-0.34-0.19-0.75-0.29-1.23-0.29
		c-0.86,0-1.53,0.36-2.01,1.07c-0.48,0.71-0.71,1.64-0.71,2.79c0,1.18,0.23,2.11,0.7,2.8C88.96,33.52,89.61,33.87,90.46,33.87
		 M106.3,37.25c-1.11,0-2.11-0.18-3.01-0.54c-0.9-0.36-1.66-0.86-2.27-1.51c-0.62-0.64-1.09-1.4-1.43-2.28
		c-0.33-0.88-0.5-1.83-0.5-2.85c0-1,0.17-1.94,0.5-2.81c0.33-0.87,0.81-1.63,1.43-2.27c0.62-0.64,1.35-1.14,2.19-1.5
		c0.84-0.36,1.79-0.54,2.83-0.54c0.97,0,1.84,0.15,2.6,0.45c0.77,0.3,1.44,0.71,2.02,1.24c0.81,0.74,1.41,1.68,1.81,2.81
		c0.4,1.14,0.58,2.39,0.57,3.76h-9.72c0.14,0.92,0.46,1.64,0.95,2.17c0.49,0.53,1.19,0.79,2.09,0.79c0.56,0,1.03-0.12,1.4-0.36
		c0.37-0.24,0.65-0.57,0.84-0.99h4.2c-0.14,0.62-0.41,1.2-0.79,1.76c-0.39,0.55-0.88,1.03-1.48,1.44c-0.56,0.41-1.19,0.71-1.89,0.92
		C107.95,37.14,107.17,37.25,106.3,37.25 M108.68,28.64c-0.09-0.81-0.36-1.45-0.82-1.93c-0.46-0.47-1.04-0.71-1.74-0.71
		c-0.83,0-1.46,0.24-1.9,0.71c-0.44,0.48-0.73,1.12-0.87,1.93H108.68z M114.62,17.79h4.3v7.21h0.08c0.49-0.65,1.05-1.16,1.66-1.52
		c0.62-0.36,1.4-0.54,2.35-0.54c0.74,0,1.4,0.13,1.98,0.38c0.58,0.25,1.07,0.61,1.48,1.06c0.41,0.45,0.71,0.99,0.93,1.61
		c0.21,0.62,0.32,1.32,0.32,2.07v8.79h-4.3v-7.92c0-0.72-0.18-1.3-0.53-1.74c-0.35-0.44-0.88-0.66-1.58-0.66
		c-0.72,0-1.3,0.26-1.73,0.79c-0.43,0.53-0.65,1.22-0.65,2.06v7.47h-4.3V17.79z M136.3,37.27c-1.09,0-2.08-0.18-2.97-0.54
		c-0.89-0.36-1.65-0.86-2.29-1.51c-0.63-0.64-1.12-1.4-1.46-2.27c-0.34-0.87-0.52-1.82-0.52-2.84c0-1.02,0.17-1.97,0.52-2.84
		c0.34-0.87,0.83-1.63,1.46-2.27c0.63-0.64,1.4-1.14,2.29-1.5c0.89-0.36,1.88-0.54,2.97-0.54c1.09,0,2.08,0.18,2.97,0.54
		c0.89,0.36,1.65,0.86,2.27,1.5c0.62,0.64,1.11,1.4,1.45,2.27c0.34,0.87,0.51,1.82,0.51,2.84c0,1.02-0.17,1.97-0.51,2.84
		c-0.34,0.87-0.83,1.63-1.45,2.27c-0.62,0.64-1.38,1.14-2.27,1.51C138.38,37.09,137.39,37.27,136.3,37.27 M136.28,34.21
		c0.95,0,1.67-0.37,2.15-1.12c0.49-0.75,0.73-1.74,0.73-2.97c0-1.23-0.24-2.23-0.73-2.98c-0.48-0.76-1.2-1.14-2.15-1.14
		c-0.95,0-1.66,0.38-2.14,1.14c-0.47,0.76-0.71,1.75-0.71,2.98c0,1.23,0.24,2.22,0.71,2.97C134.61,33.84,135.33,34.21,136.28,34.21
		 M149.61,37.25c-1.57,0-2.75-0.46-3.55-1.39c-0.8-0.92-1.2-2.14-1.2-3.66v-8.87h4.28v7.98c0,0.74,0.17,1.31,0.5,1.7
		c0.34,0.4,0.85,0.59,1.53,0.59c0.74,0,1.32-0.25,1.74-0.75c0.42-0.5,0.63-1.16,0.63-1.97v-7.55h4.3v13.52h-4.12v-1.66h-0.08
		c-0.49,0.67-1.05,1.18-1.68,1.53C151.35,37.07,150.56,37.25,149.61,37.25 M165.93,37.27c-1.99,0-3.56-0.43-4.73-1.28
		c-1.16-0.85-1.78-2.03-1.85-3.53h4.07c0.09,0.67,0.34,1.17,0.77,1.51c0.42,0.33,0.99,0.5,1.72,0.5c0.65,0,1.17-0.11,1.54-0.34
		c0.38-0.23,0.57-0.56,0.57-1c0-0.3-0.1-0.54-0.29-0.73c-0.19-0.18-0.45-0.33-0.77-0.45c-0.32-0.11-0.68-0.2-1.1-0.26
		c-0.41-0.06-0.84-0.14-1.28-0.22c-0.58-0.11-1.16-0.23-1.74-0.38c-0.58-0.15-1.1-0.37-1.57-0.67c-0.47-0.3-0.84-0.7-1.12-1.2
		c-0.28-0.5-0.42-1.15-0.42-1.94c0-0.7,0.15-1.33,0.46-1.88c0.31-0.54,0.73-1,1.26-1.36c0.53-0.36,1.15-0.63,1.86-0.82
		c0.71-0.18,1.47-0.28,2.26-0.28c1.92,0,3.39,0.39,4.41,1.16c1.02,0.77,1.58,1.83,1.69,3.17h-3.96c-0.09-0.62-0.32-1.03-0.7-1.25
		c-0.38-0.22-0.87-0.33-1.47-0.33c-0.53,0-0.97,0.1-1.33,0.3c-0.36,0.2-0.54,0.51-0.54,0.94c0,0.25,0.09,0.44,0.26,0.58
		c0.18,0.14,0.41,0.26,0.71,0.36c0.3,0.1,0.65,0.18,1.04,0.25c0.4,0.07,0.81,0.14,1.23,0.21c0.6,0.1,1.2,0.23,1.81,0.38
		c0.61,0.15,1.16,0.38,1.66,0.7c0.5,0.32,0.91,0.74,1.23,1.28c0.32,0.54,0.48,1.24,0.48,2.1c0,0.74-0.16,1.39-0.46,1.96
		c-0.31,0.56-0.74,1.03-1.28,1.4c-0.55,0.37-1.2,0.65-1.95,0.85C167.63,37.18,166.81,37.27,165.93,37.27 M180.48,37.25
		c-1.11,0-2.11-0.18-3.01-0.54c-0.9-0.36-1.65-0.86-2.27-1.51c-0.62-0.64-1.09-1.4-1.43-2.28c-0.33-0.88-0.5-1.83-0.5-2.85
		c0-1,0.17-1.94,0.5-2.81c0.33-0.87,0.81-1.63,1.43-2.27c0.62-0.64,1.35-1.14,2.19-1.5c0.85-0.36,1.79-0.54,2.83-0.54
		c0.97,0,1.84,0.15,2.6,0.45c0.77,0.3,1.44,0.71,2.02,1.24c0.81,0.74,1.41,1.68,1.81,2.81c0.4,1.14,0.58,2.39,0.57,3.76h-9.72
		c0.14,0.92,0.46,1.64,0.95,2.17c0.49,0.53,1.19,0.79,2.09,0.79c0.56,0,1.03-0.12,1.4-0.36c0.37-0.24,0.65-0.57,0.85-0.99h4.2
		c-0.14,0.62-0.4,1.2-0.79,1.76c-0.39,0.55-0.88,1.03-1.48,1.44c-0.56,0.41-1.19,0.71-1.89,0.92
		C182.12,37.14,181.34,37.25,180.48,37.25 M182.86,28.64c-0.09-0.81-0.36-1.45-0.82-1.93C181.58,26.24,181,26,180.3,26
		c-0.83,0-1.46,0.24-1.9,0.71c-0.44,0.48-0.73,1.12-0.87,1.93H182.86z"/>
	<path class="st0" d="M21.07,1.42v33.06l18.91,13.77c0.02-0.02,0.04-0.04,0.05-0.05L21.07,1.42z"/>
	<path d="M2.11,48.2c0.02,0.02,0.04,0.04,0.05,0.05l18.91-13.77V1.42L2.11,48.2z"/>
</g>
<g>
	<g>
		<path d="M61.79,51.46c0-3.52,2.23-6.13,5.78-6.13s5.78,2.61,5.78,6.13c0,3.51-2.23,6.11-5.78,6.11S61.79,54.96,61.79,51.46z
			 M71.1,51.46c0-2.45-1.2-4.33-3.52-4.33c-2.34,0-3.57,1.88-3.57,4.33c0,2.43,1.23,4.26,3.57,4.26
			C69.9,55.72,71.1,53.89,71.1,51.46z"/>
		<path d="M79.95,57.3v-1.2h-0.03c-0.62,0.92-1.36,1.42-2.54,1.42c-1.85,0-2.92-1.15-2.92-2.97v-5.68h2.01v5.4
			c0,0.99,0.57,1.58,1.58,1.58c1.14,0,1.86-0.87,1.86-2.04v-4.94h1.99v8.43H79.95z"/>
		<path d="M82.89,48.87h1.29v-2.68h1.97v2.68h1.69v1.37h-1.69v4.72c0,0.62,0.33,0.79,0.9,0.79c0.21,0,0.49-0.03,0.65-0.06h0.09v1.56
			c-0.33,0.06-0.79,0.13-1.33,0.13c-1.36,0-2.29-0.49-2.29-1.97v-5.16h-1.29V48.87z"/>
		<path d="M88.83,48.87h2.08l1.09,3.93c0.27,0.98,0.52,2.54,0.52,2.54h0.03c0,0,0.27-1.53,0.55-2.54l1.04-3.93h1.77L97,52.8
			c0.25,0.96,0.54,2.56,0.54,2.56h0.03c0,0,0.24-1.53,0.54-2.56l1.12-3.93h2.02l-2.68,8.43h-1.93l-1.06-4.01
			c-0.22-0.88-0.52-2.48-0.52-2.48h-0.03c0,0-0.32,1.59-0.54,2.48L93.4,57.3h-1.93L88.83,48.87z"/>
		<path d="M102.2,45.55h2.05v1.94h-2.05V45.55z M102.24,48.87h2.01v8.43h-2.01V48.87z"/>
		<path d="M105.36,48.87h1.29v-2.68h1.97v2.68h1.69v1.37h-1.69v4.72c0,0.62,0.33,0.79,0.9,0.79c0.21,0,0.49-0.03,0.65-0.06h0.09
			v1.56c-0.33,0.06-0.79,0.13-1.33,0.13c-1.36,0-2.29-0.49-2.29-1.97v-5.16h-1.29V48.87z"/>
	</g>
	<g>
		<path d="M125.49,49.2c-0.22-1.59-1.25-2.53-2.94-2.53c-3.17,0-4.59,3.13-4.59,6c0,2.21,0.99,3.92,3.4,3.92
			c2.05,0,3.35-1.45,3.79-3.39h1.03c-0.27,1.22-0.81,2.27-1.59,3.05c-0.81,0.81-1.93,1.26-3.27,1.26c-2.91,0-4.44-1.94-4.44-4.8
			c0-3.3,1.96-6.93,5.78-6.93c2.12,0,3.63,1.17,3.87,3.43H125.49z"/>
		<path d="M127.2,54.03c0-2.45,1.39-5.08,4.15-5.08c1.89,0,3.27,1.37,3.27,3.52c0,2.42-1.36,5.04-4.12,5.04
			C128.61,57.51,127.2,56.23,127.2,54.03z M133.65,52.52c0-1.45-0.69-2.76-2.32-2.76c-2.13,0-3.14,2.19-3.14,4.23
			c0,1.52,0.76,2.72,2.35,2.72C132.62,56.7,133.65,54.55,133.65,52.52z"/>
		<path d="M135.12,57.3l1.58-8.16h0.96l-0.25,1.31h0.03c0.65-0.81,1.48-1.48,2.72-1.48c0.96,0,1.64,0.54,1.77,1.59h0.03
			c0.79-1.01,1.77-1.59,2.92-1.59c1.26,0,2.19,0.81,1.85,2.57l-1.11,5.76h-0.96l1.11-5.76c0.24-1.2-0.24-1.75-1.14-1.75
			c-1.31,0-2.54,1.09-2.83,2.59l-0.95,4.93h-0.96l1.12-5.8c0.22-1.12-0.22-1.72-1.14-1.72c-1.31,0-2.56,1.14-2.84,2.59l-0.95,4.93
			H135.12z"/>
		<path d="M150.87,57.51c-1.18,0-2.16-0.6-2.57-1.63h-0.03l-0.79,4.04h-0.96l2.1-10.78h0.96l-0.25,1.29h0.03
			c0.66-0.93,1.55-1.47,2.73-1.47c1.77,0,2.87,1.33,2.86,3.33C154.95,54.8,153.65,57.51,150.87,57.51z M151.87,49.77
			c-2.12,0-3.22,2.35-3.24,4.34c-0.02,1.55,0.74,2.59,2.26,2.59c2.16,0,3.06-2.42,3.06-4.37C153.95,50.98,153.38,49.77,151.87,49.77
			z"/>
		<path d="M156.26,57.3h-0.96l2.18-11.29h0.96L156.26,57.3z"/>
		<path d="M159.24,53.4c-0.03,0.21-0.03,0.43-0.03,0.63c0,1.52,0.71,2.65,2.35,2.65c1.2,0,2.1-0.73,2.48-1.85h0.95
			c-0.57,1.75-1.85,2.67-3.51,2.67c-1.93,0-3.25-1.28-3.25-3.47c0-2.46,1.52-5.08,4.18-5.08c0.92,0,1.56,0.25,2.05,0.73
			c0.93,0.87,1.03,2.35,0.81,3.73H159.24z M159.37,52.63h5.01c0.22-1.61-0.38-2.89-2.01-2.89
			C160.72,49.74,159.73,51.05,159.37,52.63z"/>
		<path d="M168.38,52.91l-1.8-3.77h1.09l1.39,3.17h0.03l2.51-3.17h1.14L169.53,53l2.1,4.29h-1.09l-1.71-3.69h-0.03l-2.97,3.69h-1.12
			L168.38,52.91z"/>
		<path d="M173.4,57.3h-0.96l1.58-8.16h0.96L173.4,57.3z M175.31,47.38h-0.96l0.27-1.37h0.96L175.31,47.38z"/>
		<path d="M176.02,49.14h1.2l0.49-2.51h0.96l-0.47,2.51h1.48l-0.16,0.79h-1.48l-1.11,5.72c-0.11,0.6,0.06,0.88,0.63,0.88
			c0.27,0,0.55-0.05,0.69-0.11h0.05l-0.16,0.82c-0.19,0.08-0.47,0.13-0.77,0.13c-1.14,0-1.63-0.65-1.41-1.8l1.09-5.64h-1.2
			L176.02,49.14z"/>
		<path d="M182.56,58.42c-0.6,1.17-1.33,1.58-2.27,1.58c-0.39,0-0.66-0.05-0.87-0.13l0.17-0.87h0.03c0.14,0.05,0.3,0.13,0.71,0.13
			c0.58,0,1.04-0.3,1.39-0.99l0.46-0.87l-1.77-8.13h0.98l1.09,5.24c0.17,0.81,0.32,1.89,0.32,1.89h0.03c0,0,0.47-1.06,0.87-1.86
			l2.64-5.27h0.99L182.56,58.42z"/>
	</g>
</g>
</svg>
