<?xml version="1.0" encoding="UTF-8"?>
<svg id="Layer_2" data-name="Layer 2" xmlns="http://www.w3.org/2000/svg" viewBox="0 0 1744.75 1533.3">
  <defs>
    <style>
      .cls-1 {
        fill: #24365f;
      }

      .cls-2 {
        fill: #00153b;
      }

      .cls-3 {
        fill: #fff;
      }

      .cls-4 {
        fill: #f8a07d;
      }

      .cls-5 {
        stroke: #bcbec0;
        stroke-width: 4.82px;
      }

      .cls-5, .cls-6, .cls-7 {
        fill: none;
        stroke-miterlimit: 10;
      }

      .cls-8 {
        fill: #0088ce;
      }

      .cls-9 {
        fill: #c4a17e;
      }

      .cls-10 {
        fill: #cfeae6;
      }

      .cls-11 {
        fill: #ddbe90;
      }

      .cls-12 {
        fill: #bfe5e5;
      }

      .cls-13 {
        fill: #f7a483;
      }

      .cls-14 {
        fill: #002952;
      }

      .cls-15 {
        fill: #d83633;
      }

      .cls-16 {
        fill: #b1775f;
      }

      .cls-17 {
        fill: #c93232;
      }

      .cls-18 {
        fill: #370900;
      }

      .cls-19 {
        fill: #3c2415;
      }

      .cls-20 {
        fill: #00b9c5;
      }

      .cls-21 {
        fill: #e79675;
      }

      .cls-22 {
        fill: #1f3038;
      }

      .cls-23 {
        fill: #4fa6c9;
      }

      .cls-24 {
        fill: #a62724;
      }

      .cls-25 {
        fill: #00264e;
      }

      .cls-26 {
        fill: #e1876f;
      }

      .cls-27 {
        fill: #001940;
      }

      .cls-28 {
        fill: #ca8268;
      }

      .cls-29 {
        fill: #a5c6c7;
      }

      .cls-30 {
        fill: #d2e7f2;
      }

      .cls-31 {
        fill: #0071ac;
      }

      .cls-6 {
        stroke: #cfeae6;
      }

      .cls-6, .cls-7 {
        stroke-width: 2.95px;
      }

      .cls-32 {
        fill: #963222;
      }

      .cls-33 {
        fill: #d1d3d4;
      }

      .cls-34 {
        fill: #000210;
      }

      .cls-35 {
        fill: #ebc2ab;
      }

      .cls-36 {
        fill: #d7b089;
      }

      .cls-37 {
        fill: #e6e7e8;
      }

      .cls-38 {
        fill: #101b26;
      }

      .cls-39 {
        fill: #010c18;
      }

      .cls-40 {
        fill: #09111c;
      }

      .cls-41 {
        fill: #091420;
      }

      .cls-42 {
        fill: #2c080d;
      }

      .cls-43 {
        fill: #471f08;
      }

      .cls-44 {
        fill: #e59375;
      }

      .cls-45 {
        fill: #e98b6f;
      }

      .cls-7 {
        stroke: #e6e7e8;
      }
    </style>
  </defs>
  <g id="Capa_1" data-name="Capa 1">
    <path class="cls-35" d="m1744.75,1450.82c0,45.55-390.57,82.48-872.37,82.48S0,1496.38,0,1450.82s390.57-82.48,872.37-82.48,872.37,36.93,872.37,82.48Z"/>
    <g>
      <g>
        <path class="cls-32" d="m357.21,95.52s-44.46.04-36.72-50.54c0,0,26.78,25.29,55.45,14.82,0,0,2.17,33.95-18.72,35.71Z"/>
        <g>
          <g>
            <path class="cls-44" d="m276.65,333.98l-14.13,3.08s-38.65,166.32-24.11,205.8c14.54,39.49,37.91.39,45.21-3.18,7.3-3.57,71.92-186.6,71.92-186.6l-78.89-19.11Z"/>
            <path class="cls-27" d="m227.95,522.04l25.41-193.16c15.13-50.82,70.98-32.05,70.98-32.05,41.89,15.54,35.22,48.5,35.22,48.5l-57.36,198.47s-10.86,30.13-50.67,26.12c0,0-28.97-6.92-23.58-47.88Z"/>
          </g>
          <path class="cls-42" d="m296.39,1370.64s-7.5,29.21-16.73,37.13c-9.21,7.92-44.4,19.57-44.4,19.57l-19.49,2.8s-13.54,9.71,23.64,19.93c37.18,10.22,102.44-20.62,102.44-20.62l-14.71-59.7-30.75.89Z"/>
          <path class="cls-42" d="m492.48,1434.22c6.57-10.23,20.32-65.96,20.32-65.96l30.38-.92,19.01,61.36s3.05,10.27-3.16,14.12c0,0-37.89,13.15-70.25-.63,0,0,.34-2.74,3.69-7.97Z"/>
          <path class="cls-13" d="m304.13,587.96l-38.79-237.09s-13.37-35.64,13.37-53.45l101.89-47.89h71.86l122.49,72.4-80.29,266.04h-190.52Z"/>
          <path class="cls-25" d="m494.66,587.96s22,50.24,27.31,165.73c0,0-165.6,51.94-217.54,0l-.29-165.73h190.52Z"/>
          <g>
            <path class="cls-25" d="m386.09,753.19c-.28,38.76,29.9,70.4,67.41,70.68,37.52.27,68.17-30.92,68.46-69.68.28-38.75-29.9-70.39-67.42-70.67-37.52-.28-68.17,30.92-68.45,69.67Z"/>
            <path class="cls-25" d="m521.9,762.73l18.02,330.05s-31.9,41.83-88.35-5.36l-61.29-303.6s29.75-102.03,131.62-21.09Z"/>
          </g>
          <path class="cls-25" d="m525.87,1054.25s31.03,59.02,25.98,155.52l5.05,180.4-51.21,1.53-53.82-303.34s28.52-101.83,73.99-34.11Z"/>
          <g>
            <path class="cls-25" d="m304.73,753.88c-3.93,38.55,9.85,71.54,47.17,75.35,37.33,3.81,70.78-24.36,74.71-62.91,3.93-38.56-23.14-72.9-60.46-76.7-37.33-3.81-57.48,25.71-61.42,64.27Z"/>
            <path class="cls-25" d="m410.69,804.64l-38.3,301.68s-67.77,9.02-80.97-37.12c0,0-.85-212.95,13.32-315.32,0,0,91.81-44.72,105.95,50.76Z"/>
          </g>
          <path class="cls-25" d="m368.12,1079.58s12.25,45.19.98,118l-27.82,203.77-54.81-3.87,4.94-328.28s30.16-45.62,76.71,10.38Z"/>
          <g>
            <path class="cls-13" d="m564.24,351.06l13.96,3.73s21.79,167.18,5.43,205.95c-16.34,38.77-31.71.31-38.84-3.59-7.12-3.91-60.25-190.64-60.25-190.64l79.69-15.46Z"/>
            <path class="cls-27" d="m526.73,555.66l-45.77-196.9c9.45-53.25,60.13-49.5,60.13-49.5,44.5,4.05,46.68,37.6,46.68,37.6l2.95,200.25s2.93,34.23-22.86,32.41c0,0-36.92-5.77-41.12-23.86Z"/>
          </g>
          <path class="cls-13" d="m452.81,197.15v76.8h-81.22s19.98-30.45,9.98-76.8h71.24Z"/>
          <path class="cls-26" d="m411.61,262.38c-7.32,4.71-22.87,14.73-31.76,8.87-2.39-1.58-3.49-3.65-3.85-5.96,5.22-12.16,12.41-36.43,5.57-68.14h71.24v6.96c-8.89,22.48-20.29,44.77-41.2,58.26Z"/>
          <g>
            <path class="cls-4" d="m454.75,198.23s13.82-6,29.47-40.21c0,0,33.98-40.46,9.9-86.39,0,0-14.23-38.84-83.19-27.96,0,0-6.2,104.09,43.82,154.57Z"/>
            <path class="cls-13" d="m369.83,219l-4.6-12.04s-12.69-44.81-12.69-44.82c-1.59-5.63-1.68-13.18-.66-18.97,1.12-6.3,1.83-12.88.19-19.53-8.01-32.22,8.51-50.52,8.51-50.52,18.2-30.39,62.99-31.4,62.99-31.4,55.46,1.44,61.37,54.94,61.37,54.94,9.82,35.45-17.86,65.8-17.91,65.86-2.21,2.42-.77,14.13-1.37,17.48-2.6,14.29-16.01,23.36-27.93,29.67-13.1,6.93-28.97,14.34-43.77,16.04-5.61.65-21.48.18-24.11-6.73Z"/>
          </g>
          <path class="cls-3" d="m507.84,581.52c-.17,7.89,11.82,90.54,6.79,91.59-.03.01-137.1,31.6-210.21,0l-.29-85.15-38.79-237.09s-13.37-35.64,13.37-53.45l101.89-47.89-6.88,20.66,14.73,41.89,64-62.55,122.49,72.4c-6.84,22.68-13.65,45.38-20.5,68.06-12.63,41.82-24.91,83.76-37.93,125.46,0,0-10.76,45.23-8.68,66.09Z"/>
          <polygon class="cls-29" points="397.29 264.43 398.14 302.6 412.2 288.86 397.29 264.43"/>
          <path class="cls-10" d="m379.39,325.98c0,3.01,2.44,5.45,5.45,5.45s5.45-2.44,5.45-5.45-2.45-5.44-5.45-5.44-5.45,2.44-5.45,5.44Z"/>
          <path class="cls-10" d="m379.39,424.89c0,3,2.44,5.44,5.45,5.44s5.45-2.44,5.45-5.44-2.45-5.45-5.45-5.45-5.45,2.43-5.45,5.45Z"/>
          <path class="cls-10" d="m379.39,523.79c0,3.02,2.44,5.46,5.45,5.46s5.45-2.44,5.45-5.46-2.45-5.44-5.45-5.44-5.45,2.44-5.45,5.44Z"/>
          <path class="cls-10" d="m379.39,622.7c0,3,2.44,5.45,5.45,5.45s5.45-2.45,5.45-5.45-2.45-5.45-5.45-5.45-5.45,2.44-5.45,5.45Z"/>
          <line class="cls-6" x1="397.29" y1="306.95" x2="397.29" y2="682.31"/>
          <g>
            <path class="cls-43" d="m305.27,680.94s70.01,32.8,213.3-.72c2.36-.56,1.36-6.67,1.36-6.67l-1.36-13.8c-.62-4.42-3.09-4.21-3.09-4.21-.03,0-137.1,31.6-210.21,0,0,0-2.95-.52-3.07,3.91v17.2s0,3.43,3.07,4.29Z"/>
            <g>
              <path class="cls-5" d="m376.39,691.34c0,2.18,1.73,3.96,3.87,3.96h27.88c2.13,0,3.86-1.78,3.86-3.96v-20.08c0-2.18-1.73-3.96-3.86-3.96h-27.88c-2.14,0-3.87,1.77-3.87,3.96v20.08Z"/>
              <line class="cls-5" x1="412" y1="680.04" x2="397.24" y2="680.04"/>
            </g>
          </g>
          <path class="cls-12" d="m397.29,263.57s44.95-17.46,55.52-34.84l13.28,25.32-47.38,45.44-21.42-35.05"/>
          <path class="cls-32" d="m358.8,75.44c2.02-14.64,49.71-6.82,62.2-4.54,7.51,1.38,16.32,3.67,20.41,11.05,1.51,2.73,7.54,21.8.12,31.34,6.56,20.53,8.1,36.4,8.1,36.4l3.8.21c7.45,19.23,8.92,42.35,8.92,42.35,0,0,27.83-12,47.14-62.79,19.55-64.67-28.52-93.16-28.52-93.16-44.08-19.14-88.08-13.9-88.08-13.9,0,0-44.35,4.05-54.37-22.41,0,0-28.09,60.75,20.29,75.44Z"/>
          <g>
            <path class="cls-13" d="m458.71,167.75c1.96,1.66,4.54,2.69,7.81,2.79,8.84.28,16.55-7.64,17.23-17.7.68-10.03-5.93-18.4-14.76-18.68-4.19-.13-8.14,1.58-11.18,4.49-4.44,4.24-4.96,12.41-4.22,18.11.59,4.55,2.18,8.5,5.12,10.99Z"/>
            <g>
              <path class="cls-45" d="m464.98,143.36c.77-5.26,11.2.29,9.45,3.18-1.02,1.68-2.95,2.83-4.47,3.96-2.09,1.56-3.14,3.01-3.55,5.62-.05.3-.15,1.21.14,1.45,1.34,1.02,6.1-3.93,7.15-4.96,2.05-2.05,2.49-5.69,1.67-8.38-.87-2.86-2.65-4.28-5.68-4.23-2.39.02-4.85.07-4.84,3.06,0,.07.08.57.12.3h0Z"/>
              <path class="cls-45" d="m468.14,148.99c-1.05-1.17-2.15-.29-3.34.48-1.09.72-1.73,1.79-2.06,3.03-.74,2.71-.53,6.39.93,8.86,1.18,2,3.26,3.28,5.59,3.32,3.22.05,4.3-2.75,4.56-5.46.07-.72.2-2.45-.49-2.93-.74-.51-1.35.64-1.88,1.14-.75.65-1.82.86-2.77.9-1.85.08-3.59-.94-4.69-2.36-.18-.25-.35-.55-.45-.85-.07,1.78,0,2.19.23,1.21.17-.45.39-.86.67-1.23.8-1.2,2.09-1.99,2.98-3.12.43-.53,1.25-2.4.72-3h0Z"/>
            </g>
          </g>
          <path class="cls-27" d="m472.8,261.55l-54.48,191.39,8.09,347.75s93.5,6.97,130.49-26.51l-34.93-215.27,52.97-236.99-102.14-60.37Z"/>
          <path class="cls-27" d="m352.13,262.89l-62.04,29.16s-35.31,9.32-28.09,45.91l20.41,202.68-33.82,233.54s29.02,34.84,86.79,14.37l25.45-340.77-8.69-184.88Z"/>
          <path class="cls-12" d="m359.33,265.51s4.13-15.99,24.39-29.5l-2.65,55.11s-11.25-28.19-21.75-25.61Z"/>
          <path class="cls-29" d="m357.49,291.12l1.84-25.61c6.19-1.52,11.72,7.14,16.23,14.25l-18.07,11.37Z"/>
          <g>
            <polygon class="cls-15" points="401.71 278.23 403.37 275.13 414.67 292.48 404.95 295.94 401.71 278.23"/>
            <path class="cls-15" d="m375.56,279.76l-3.17-4.86s-12.07,10.14.61,21.04c0,0,0-8.97,2.57-16.18Z"/>
            <path class="cls-15" d="m401.71,278.23s-9.58,8.52-26.15,1.53c-3.62,4.61-3.61,10.48-2.57,16.18l8.59,17.7h11.99l11.38-17.7s1.18-3.91-3.24-17.71Z"/>
            <polygon class="cls-24" points="393.57 313.64 403.25 566.98 383.03 606.33 366.53 567.18 381.58 313.64 393.57 313.64"/>
          </g>
          <path class="cls-13" d="m460.56,474.2l24.91-19.68s37.5-5.5,56.23-3.14c0,0,6.19,8.61-41.11,9.93,0,0,33.16,10.59,43.82,18.48,0,0,1.7,9.82-28.63-4.44l-13.8-1.02,32.09,16.02s-1.25,6.11-30.47-1.83l-29.3,3.21-13.73-17.54Z"/>
          <path class="cls-2" d="m301.05,477.85l160.52-19.2c8.03,9.8,15.75,27.6,12.32,46.23l-205.04,65.03s-54.17,9.61-39.89-55.63c0,0,22.89-33.26,72.09-36.43Z"/>
          <path class="cls-13" d="m301.05,477.85s28.85,15.55,39.66,16.78l16.78-28.96-22.93-14.87-15.72-3.62s-25.86-6.67-32.68,28.81l14.88,1.86Z"/>
          <path class="cls-14" d="m588.03,534.02c9.7,58.65-32.96,43.84-32.96,43.84l-217.5-78.28c6.13-33.7,19.92-38.98,19.92-38.98l186.03,35.49s35,11,44.52,37.93Z"/>
        </g>
      </g>
      <g>
        <path class="cls-19" d="m1387.55,135.8c-5.04,5.02-6.93,12.58-9.36,19.27-18.82-24.82-32.66-73.55-5.86-95.89,40.27-33.57,41.07,50.89,15.23,76.62Z"/>
        <g>
          <g>
            <g>
              <g>
                <path class="cls-28" d="m1473.91,803.17l3.12,20.97-12.21,27.81s5.16,4.62,10.87-4.5l10.88-22.93-1.53-23.62-11.13,2.27Z"/>
                <path class="cls-28" d="m1479.5,810.26l4.27,20.77-10.62,28.45s5.4,4.32,10.59-5.11l9.58-23.5-2.85-23.49-10.97,2.89Z"/>
                <path class="cls-44" d="m1502.94,814.91l-3.8-24.38-4.18-30.25-18.93-2.62-6.5,31.9-1.58,16.75-1.9,22.88-1.01,7.39s5.93,1.91,10.54-9.84l4.83-21.58,8.21,16.96-6.95,29.78s1.78,15.54,6.44,9.68l15.66-41.79-.81-4.86Z"/>
              </g>
              <path class="cls-44" d="m1430.11,554.21s41.9,165.1,45.92,203.45c0,0,16.27,19.32,18.93,2.62,5.32-33.33-2.24-207.87-10.76-221.68-8.52-13.82-54.09,15.61-54.09,15.61Z"/>
            </g>
            <g>
              <path class="cls-44" d="m1464.11,355.29l13.75,4.48s21.78,169.36,3.35,207.18c-18.42,37.83-39.63-.18-46.54-4.47-6.9-4.29-50.97-196.09-50.97-196.09l80.41-11.11Z"/>
              <path class="cls-39" d="m1493.71,547.3l-8.79-212.16c-9.96-52.08-63.28-36.57-63.28-36.57-43.24,11.25-41.17,59.71-41.17,59.71l37.18,203.22s7.79,31.07,47.79,31.07c0,0,29.52-3.98,28.26-45.27Z"/>
            </g>
            <polygon class="cls-3" points="1468.17 762.93 1468.83 782.24 1502.42 781.08 1501.76 761.78 1468.17 762.93"/>
            <path class="cls-39" d="m1421.32,568.63s18.55,124.71,45.16,201.11c0,0,22.83,2.14,35.82-1.24,0,0,1.98-178.82-12.74-236.68,0,0-73.54,1.53-68.24,36.82Z"/>
          </g>
          <path class="cls-42" d="m1448.36,1357.56s7.5,29.21,16.73,37.13c9.21,7.93,44.4,19.57,44.4,19.57l19.49,2.8s13.54,9.71-23.64,19.93c-37.18,10.22-102.44-20.62-102.44-20.62l14.71-59.71,30.75.89Z"/>
          <path class="cls-42" d="m1249.68,1437.89c-6.57-10.22-20.32-65.96-20.32-65.96l-30.38-.92-19.01,61.36s-3.05,10.27,3.15,14.12c0,0,37.89,13.15,70.25-.63,0,0-.34-2.75-3.7-7.98Z"/>
          <path class="cls-13" d="m1438.04,591.63l38.79-237.09s13.37-35.64-13.36-53.46l-101.89-47.89h-71.86l-122.49,72.39,80.29,266.05h190.53Z"/>
          <path class="cls-34" d="m1247.51,591.63s-22,50.24-27.31,165.73c0,0,165.6,51.94,217.54,0l.29-165.73h-190.53Z"/>
          <g>
            <path class="cls-34" d="m1356.07,756.86c.28,38.76-29.9,70.4-67.41,70.68-37.52.27-68.17-30.92-68.46-69.68-.29-38.75,29.9-70.39,67.42-70.67,37.52-.28,68.16,30.92,68.45,69.66Z"/>
            <path class="cls-34" d="m1220.27,766.41l-18.01,295.12s31.89,76.75,88.34,29.57l61.29-303.6s-29.75-102.03-131.62-21.09Z"/>
          </g>
          <path class="cls-34" d="m1202.26,1061.53s-16.99,55.41-11.94,151.9l-5.05,180.4,62.52,1.24,42.51-303.05s-42.56-98.22-88.04-30.5Z"/>
          <g>
            <path class="cls-34" d="m1437.43,757.54c3.93,38.55-9.85,71.54-47.17,75.35-37.32,3.81-70.77-24.36-74.71-62.92-3.93-38.56,23.14-72.9,60.46-76.7,37.33-3.81,57.48,25.72,61.42,64.27Z"/>
            <path class="cls-34" d="m1331.48,808.31l34.29,271.91s74.35,32.96,87.55-13.16c0,0-1.73-207.13-15.9-309.51,0,0-91.81-44.71-105.95,50.77Z"/>
          </g>
          <path class="cls-34" d="m1365.78,1069.11s-10.43,39.88.83,112.7l25.8,206.09,65.86-3.49-4.94-328.29s-41.01-43.01-87.55,12.99Z"/>
          <g>
            <path class="cls-13" d="m1183.01,570.5c-14,140.41-8.26,149.71-6.8,206.03,0,0-7.48,19.82-20.2,8.68-12.73-11.11-33.04-198.11-26.64-213.03,9.52-22.14,53.64-1.68,53.64-1.68Z"/>
            <path class="cls-13" d="m1174.14,770.93l19.75,19.74,16.78,24.59c-8.3,5.59-17.01-8.17-17.01-8.17,5.43,21.68,15.96,40.8,15.96,40.8,2.55,7.77-4.79,7.2-4.79,7.2-8.19-8.41-18.68-33.22-18.68-33.22,3.94,14.78,13.96,38.34,13.96,38.34.95,6.76-5.83,4.84-5.83,4.84-13.94-8.25-18.56-38.34-18.56-38.34,1.39,11.42,10.38,34.86,10.38,34.86-1.62,4.64-3.88,3.06-3.88,3.06-12.04-4.84-16.41-33.82-16.41-33.82l1.92,10.8c3.94,14.56-5.09,10.8-5.09,10.8l-3.25-7.3c-9.52-22.41-6.65-42.58-6.65-42.58l.06-26.2,21.32-5.39Z"/>
            <path class="cls-13" d="m1214.1,329.94c-47.29-10.77-63.45,32.94-63.45,32.94,0,0-23.74,145.49-23.45,207.84.19,42.07,51.53,8.19,54.9.79,7.44-16.32,61.39-191.57,61.39-191.57,0,0,2.81-41.18-29.39-50.01Z"/>
            <path class="cls-41" d="m1190.1,573.96l61.33-198.84c-1.38-49.43-49.75-56.8-49.75-56.8-45.48-4.36-55.45,34.78-55.45,34.78l-22,199.06s-7.46,44.75,18.39,45.39c0,0,43.38,4.7,47.48-23.59Z"/>
            <rect class="cls-3" x="1147.84" y="761.27" width="33.61" height="19.31" transform="translate(-128.51 243.22) rotate(-11.3)"/>
            <path class="cls-41" d="m1193.82,561.89s-7.94,167.04-10.8,201.2l-37.29,7.84s-33.71-167.41-21.5-218.78c0,0,48.73-26.59,69.59,9.74Z"/>
          </g>
          <path class="cls-13" d="m1289.36,200.82v76.8h81.22s-19.97-30.45-9.98-76.8h-71.24Z"/>
          <path class="cls-26" d="m1330.56,266.05c7.32,4.71,22.88,14.73,31.75,8.87,2.39-1.59,3.49-3.66,3.86-5.96-5.23-12.16-12.41-36.43-5.57-68.13h-71.24v6.96c8.89,22.48,20.29,44.78,41.2,58.26Z"/>
          <g>
            <path class="cls-4" d="m1287.42,201.9s-13.82-6.01-29.47-40.22c0,0-33.98-40.45-9.9-86.38,0,0,14.23-38.84,83.2-27.97,0,0,6.2,104.09-43.82,154.57Z"/>
            <path class="cls-13" d="m1372.34,222.67l4.6-12.04s12.69-44.81,12.69-44.82c1.59-5.63,1.68-13.17.66-18.96-1.12-6.3-1.83-12.88-.19-19.53,8.01-32.23-8.51-50.52-8.51-50.52-18.2-30.39-63-31.4-63-31.4-55.46,1.44-61.37,54.94-61.37,54.94-9.82,35.45,17.86,65.8,17.91,65.87,2.21,2.41.78,14.12,1.38,17.48,2.6,14.3,16.01,23.36,27.93,29.67,13.1,6.93,28.97,14.34,43.77,16.04,5.61.66,21.48.19,24.11-6.72Z"/>
          </g>
          <path class="cls-3" d="m1234.32,585.19c.17,7.9-11.82,90.54-6.79,91.6.03,0,137.11,31.59,210.21,0l.29-85.16,38.79-237.09s13.37-35.64-13.36-53.46l-101.89-47.89,6.88,20.65-14.73,41.9-64-62.55-122.49,72.39c6.84,22.69,13.65,45.38,20.49,68.06,12.63,41.82,24.92,83.76,37.93,125.46,0,0,10.76,45.23,8.68,66.08Z"/>
          <polygon class="cls-33" points="1344.88 268.1 1344.04 306.27 1329.97 292.53 1344.88 268.1"/>
          <g>
            <path class="cls-37" d="m1362.79,329.65c0,3.01-2.44,5.45-5.45,5.45s-5.45-2.44-5.45-5.45,2.45-5.44,5.45-5.44,5.45,2.44,5.45,5.44Z"/>
            <path class="cls-37" d="m1362.79,428.56c0,3-2.44,5.44-5.45,5.44s-5.45-2.43-5.45-5.44,2.45-5.45,5.45-5.45,5.45,2.43,5.45,5.45Z"/>
            <path class="cls-37" d="m1362.79,527.46c0,3.01-2.44,5.45-5.45,5.45s-5.45-2.44-5.45-5.45,2.45-5.45,5.45-5.45,5.45,2.44,5.45,5.45Z"/>
            <path class="cls-37" d="m1362.79,626.37c0,3-2.44,5.45-5.45,5.45s-5.45-2.45-5.45-5.45,2.45-5.45,5.45-5.45,5.45,2.45,5.45,5.45Z"/>
          </g>
          <line class="cls-7" x1="1344.88" y1="310.62" x2="1344.88" y2="685.98"/>
          <g>
            <path class="cls-43" d="m1436.9,684.61s-70.01,32.8-213.3-.72c-2.36-.56-1.36-6.67-1.36-6.67l1.36-13.79c.63-4.42,3.09-4.21,3.09-4.21.04,0,137.1,31.59,210.2,0,0,0,2.95-.52,3.08,3.91v17.2s0,3.44-3.08,4.29Z"/>
            <g>
              <path class="cls-5" d="m1365.78,695.02c0,2.18-1.73,3.96-3.86,3.96h-27.89c-2.13,0-3.86-1.77-3.86-3.96v-20.09c0-2.18,1.73-3.96,3.86-3.96h27.89c2.14,0,3.86,1.78,3.86,3.96v20.09Z"/>
              <line class="cls-5" x1="1330.17" y1="683.71" x2="1344.93" y2="683.71"/>
            </g>
          </g>
          <path class="cls-37" d="m1344.88,267.24s-44.94-17.46-55.52-34.84l-13.28,25.32,47.38,45.44,21.42-35.05"/>
          <path class="cls-19" d="m1300.77,85.63c-1.51,2.73-7.54,21.79-.11,31.34-15.66,12.03-8.1,36.4-8.1,36.4l-3.8.21c-21.96-5.69-14.59,35.86-14.59,35.88-.17-.96-3.82-3.28-4.55-3.98-4.3-4.11-13.35-18.9-16.2-24.11-15.46-28.34-14-29.8-18.15-46.52-2.84-11.43-1.61-42.38,15.02-57.94,0,0,19.39,0,50.47,28.72Z"/>
          <g>
            <path class="cls-13" d="m1283.46,171.43c-1.96,1.66-4.54,2.68-7.81,2.79-8.84.28-16.55-7.64-17.23-17.7-.68-10.03,5.93-18.4,14.76-18.68,4.19-.13,8.14,1.58,11.18,4.49,4.44,4.24,4.96,12.41,4.23,18.11-.6,4.55-2.19,8.5-5.13,11Z"/>
            <g>
              <path class="cls-45" d="m1277.19,147.03c-.77-5.26-11.2.29-9.46,3.18,1.02,1.67,2.95,2.83,4.48,3.96,2.09,1.57,3.14,3.01,3.55,5.62.05.3.15,1.22-.15,1.45-1.34,1.02-6.1-3.93-7.14-4.96-2.05-2.04-2.49-5.7-1.68-8.38.87-2.86,2.66-4.28,5.68-4.23,2.39.02,4.85.07,4.84,3.06,0,.07-.09.57-.12.3h0Z"/>
              <path class="cls-45" d="m1274.03,152.66c1.05-1.17,2.15-.3,3.34.48,1.09.72,1.73,1.78,2.06,3.02.74,2.71.53,6.4-.93,8.86-1.18,2-3.25,3.27-5.59,3.32-3.22.05-4.3-2.75-4.56-5.46-.07-.72-.21-2.45.49-2.93.74-.51,1.35.65,1.88,1.14.75.65,1.82.86,2.77.89,1.85.08,3.6-.94,4.7-2.36.18-.25.35-.55.45-.84.07,1.78,0,2.19-.23,1.21-.17-.45-.39-.85-.67-1.23-.8-1.2-2.1-1.98-2.97-3.12-.43-.52-1.26-2.4-.73-3h0Z"/>
            </g>
          </g>
          <path class="cls-41" d="m1269.37,265.22l54.48,191.39-8.08,347.75s-84.66-5.18-121.66-38.66l26.09-203.12-52.97-237,102.14-60.36Z"/>
          <path class="cls-22" d="m1269.37,265.22l54.48,191.39-.23,9.09-68.62-70.23s-7.21-12.19,2.56-19.4l16.21-15.51-11.56-8.3s-16.22-7.86-14.25-22.61l4.64-55.42,16.77-9.01Z"/>
          <path class="cls-41" d="m1390.04,266.57l62.04,29.16s35.31,9.32,28.09,45.91l-20.4,202.68,10.22,214.76s8.74,39.91-63.19,33.14l-25.45-340.77,8.69-184.88Z"/>
          <path class="cls-37" d="m1382.84,269.18s-4.13-15.99-24.39-29.5l2.65,55.11s11.24-28.19,21.75-25.61Z"/>
          <path class="cls-33" d="m1384.68,294.79l-1.84-25.61c-6.19-1.52-11.72,7.14-16.23,14.24l18.07,11.37Z"/>
          <path class="cls-22" d="m1390.04,266.57l15.99,7.52,11.55,53.36s5.79,13.81-2.59,17.43l-15.08,8.79,21.25,13.45s11.18,7.01,4.3,17.32l-42.62,83.22-1.34-14.23,8.54-186.87Z"/>
          <path class="cls-16" d="m1283.43,199.5c28.43,26.5,65.04,29.75,65.04,29.75,21.34,2.23,24.22-6.89,24.22-6.89,6.6-11.86,15.98-53.36,15.98-53.36-.29,1.26-9.16-3.23-10.08-3.58-6.94-2.64-14.68-1.94-21.92-1.38-7.08.55-14.38,1.62-20.45,5.58-.71.46-6.17,5.86-6.67,5.79-3.79-.5-12.66-1.84-12.66-1.84-20.52-3.04-24.35-20.19-24.35-20.19l-3.8.21-5.93,25.89s-4.1,16.47.61,20.02Zm84.07,5.86c-8.24,5.64-24.51,1.15-29.54-7.56-2.97-5.16-4.53-13.4-2.41-19.05,2.4-6.42,9.69-7.18,15.57-7.93,7.27-.93,15.25-2.17,22.56-.83,3.69.68,3.87,3.4,4.7,7.71,1.58,8.14-3.88,22.85-10.89,27.66Z"/>
          <g>
            <polygon class="cls-8" points="1340.46 281.9 1338.8 278.8 1327.5 296.14 1337.21 299.61 1340.46 281.9"/>
            <path class="cls-8" d="m1366.61,283.43l3.18-4.86s12.07,10.14-.61,21.04c0,0,0-8.97-2.57-16.18Z"/>
            <path class="cls-8" d="m1340.46,281.9s9.58,8.51,26.15,1.53c3.63,4.61,3.61,10.48,2.57,16.18l-8.59,17.7h-11.99l-11.39-17.7s-1.18-3.91,3.25-17.71Z"/>
            <polygon class="cls-31" points="1348.6 317.31 1338.91 570.65 1359.14 610 1375.64 570.85 1360.59 317.31 1348.6 317.31"/>
          </g>
        </g>
        <path class="cls-19" d="m1303.95,82.16l-18.5-9.2-35.16-16.05s0-24.11,44.36-33.41c0,0,54.39-8.58,97.65,14.31,0,0,11.8,6.44,21.1.71,0,0-15.02,62.95-109.45,43.64Z"/>
      </g>
      <g>
        <path class="cls-9" d="m1138.93,353.99l4.41-165.51c3.14-38.7-12.05-52.73-12.05-52.73-64.55-24.21-97.12,8.48-97.12,8.48v169.1c28.06,26.19,67.86,43.54,104.76,40.67Z"/>
        <path class="cls-13" d="m964.42,336.13c-33.94,16.59-15.07,56.46-15.07,56.46l45.86,166.9s42.85,17.52,118.04,8.75c10.44-14.95,31.91-77.56,39.1-125.37,5.92-39.38,24.31-78.17,4.28-100.13-7.68-8.41-66.19-16.82-66.48-18.2h-70.42l-55.29,11.58Z"/>
        <path class="cls-36" d="m1119.91,188.48l-4.39,164.79c7.84,1.07,15.69,1.32,23.41.72l4.41-165.51c3.14-38.7-12.05-52.73-12.05-52.73-23-8.62-41.91-10.01-56.76-8.25,9.96,1.11,21.06,3.64,33.33,8.25,0,0,15.19,14.04,12.05,52.73Z"/>
        <g>
          <path class="cls-44" d="m1151.29,339.49c21.81,10.99,25.28,36.36,21.68,59.42-3.76,24.12-46.93,74.79-57.52,52.78-20.81-43.25-30.54-76.05-21.28-98.64,9.26-22.6,22.18-31.17,57.12-13.55Z"/>
          <path class="cls-44" d="m1173.74,375.36l-50.68-2.3-25.29,38.2s39.29,141.2,60.65,167.89c22.74,28.45,26.73-1.95,29.71-13.92,0,0-6.47-157.89-14.39-189.88Z"/>
          <g>
            <g>
              <path class="cls-28" d="m1185.75,789.95l3.12,20.97-12.21,27.81s5.16,4.62,10.88-4.5l10.87-22.93-1.52-23.62-11.13,2.28Z"/>
              <path class="cls-28" d="m1191.34,797.04l4.27,20.77-10.62,28.46s5.41,4.32,10.59-5.11l9.58-23.51-2.85-23.49-10.97,2.89Z"/>
              <path class="cls-44" d="m1214.79,801.7l-3.8-24.38-4.18-30.25-18.93-2.62-6.51,31.9-1.58,16.75-1.89,22.87-1.02,7.39s5.93,1.91,10.54-9.85l4.83-21.58,8.21,16.96-6.96,29.78s1.79,15.54,6.45,9.68l15.65-41.79-.8-4.86Z"/>
            </g>
            <path class="cls-44" d="m1141.2,544.82s24.53,115.98,46.68,199.61c0,0,16.26,19.32,18.93,2.62,5.32-33.33-12.32-213.99-20.84-227.8-8.52-13.81-44.77,25.57-44.77,25.57Z"/>
          </g>
        </g>
        <g>
          <g>
            <path class="cls-44" d="m1098.07,1483.39c22.81,3.89,44.68-3.46,44.68-3.46l-23.67-13.92s-25.69-31.24-30.48-42.28c-3.07-7.07-3.94-30.03-3.94-30.03l-29.25,1.73-.07,16.39-10.65,24.89s-.98,11.75,20.28,14.11c0,0,14.96,16.74,33.1,32.57Z"/>
            <path class="cls-17" d="m1119.09,1466c-7.87,3.68-21.75,4.65-28.93-2.6-28.98-29.17-34.8-51.58-34.8-51.58-14.68,16.12-10.8,29.58-10.8,29.58l1.09,5.56,8.36,42.87,3.01-.18,8.32-35.42,20.34,32.84c48.62,6.38,60.21-6.8,60.21-6.8l-26.8-14.27Z"/>
          </g>
          <path class="cls-44" d="m1117.86,1068.07s-30,311.11-33.2,325.63c0,0-29.54,10.04-29.25,1.73.65-20.04-28.47-148.24-30.38-179.66-3.05-50.45,5.16-84.04,31.41-151.86,0,0,48.29-33.47,61.42,4.15Z"/>
        </g>
        <path class="cls-44" d="m1006.97,748.84s-11.21,185.63,40.14,301.36c0,0,22.67,60.92,70.13,26.38,0,0,60.35-294.61,27.16-395.2,0,0-141.24-33.04-137.43,67.46Z"/>
        <path class="cls-21" d="m1084.54,557.33c5.6-1.02,28.7,10.91,28.7,10.91,0,0,28.86,92.71,30.09,106.81,1.24,14.09-95.71,87.07-204.02,45.52,0,0,50.15-130.56,53.21-162.71,3.07-32.16,92.02-.52,92.02-.52Z"/>
        <path class="cls-1" d="m1113.24,568.24s27.66,83.61,30.09,106.81c8.63,82.14-102.51,116.59-210.82,75.03,0,0-7.03-112.93,60.01-192.23,0,0,17.81,16.24,120.71,10.39Z"/>
        <path class="cls-13" d="m1010.83,811.02l-78.32-43s12.7,247.82,22.63,317.43c0,0,43.82,12.2,57.39,3.18,40.62-95.3,64.16-302.21,64.16-302.21l-65.86,24.61Z"/>
        <path class="cls-13" d="m963.38,695.5s-37.59,10.85-29.81,80.49c7.6,68.02,132.7,74.48,144.38,4.74,12.57-75.04-48.31-114.81-114.57-85.23Z"/>
        <path class="cls-13" d="m1016.21,329.62h75.38c-3.42-10.98-10.52-39.39.46-58.73l-76.16-50.01s13.54,83.93.32,108.74Z"/>
        <path class="cls-26" d="m1086.18,296.66c-.21-8.41,1.17-17.49,5.87-25.77l-76.16-50.01s5.52,34.2,6.08,65.4c27.5,8.74,38.82,12.13,64.21,10.38Z"/>
        <g>
          <path class="cls-13" d="m1103.77,277.74l4.57-11.12,11.45-32.82c1.61-5.22,2.61-12.42,1.06-17.68-1.86-6.32-3.04-16.53-.14-27.73,7.75-30-4.91-46.51-4.91-46.51-16.29-28.77-58.04-30.76-58.04-30.76-51.77.06-58.52,49.84-58.52,49.84-9.98,32.84,15.13,61.8,15.18,61.85,3.18,3.66,3.25,9.35,4.65,13.75,1.5,4.71,3.89,9.14,6.94,13.02,6.83,8.7,15.9,17.14,25.38,22.59,8.98,5.17,26.62,10.9,39.32,11.41,5.27.21,10.44.54,13.05-5.84Z"/>
          <path class="cls-9" d="m1019.21,242.38c.93-23.59,1.46-22.11,1.46-22.11.9-6.87,13.66,8.68,13.84-.31.81-41.14,16.73-59.94,22.72-62.8,16.29-7.76,33.13-9.39,46.27-6.36,20.59,4.75,18.39,32.36,18.39,32.36,22.84-100.34-91.71-73.73-91.71-73.73-55.72,11.64-52.69,63.75-52.69,63.75-9.56,55.3,43.59,90.12,43.59,90.12l-1.87-20.92Z"/>
          <g>
            <path class="cls-4" d="m1023.23,234.54c-1.91,1.32-4.32,2.02-7.28,1.81-7.99-.52-14.25-8.34-13.97-17.45.28-9.09,6.96-16.06,14.94-15.54,3.79.25,7.18,2.14,9.68,5.03,3.64,4.21,3.38,11.63,2.22,16.68-.93,4.04-2.71,7.47-5.59,9.46Z"/>
            <g>
              <path class="cls-45" d="m1019.73,212c-.22-4.8-10.12-.73-8.79,2.04.76,1.59,2.41,2.82,3.67,3.96,1.75,1.58,2.58,2.98,2.71,5.38.02.27.04,1.11-.26,1.28-1.29.8-5.16-4.07-6-5.1-1.67-2.03-1.74-5.34-.76-7.7,1.02-2.5,2.76-3.61,5.47-3.3,2.17.23,4.37.5,4.11,3.19-.01.05-.12.5-.14.25h0Z"/>
              <path class="cls-45" d="m1016.38,216.8c1.07-.95,1.98-.07,2.97.72.92.75,1.39,1.77,1.59,2.9.43,2.52-.08,5.82-1.61,7.92-1.23,1.69-3.22,2.66-5.32,2.49-2.91-.23-3.64-2.84-3.63-5.31,0-.65.03-2.22.69-2.59.73-.41,1.17.7,1.6,1.19.62.64,1.57.94,2.42,1.05,1.65.22,3.32-.54,4.42-1.71.2-.21.39-.46.48-.73-.08,1.61-.18,1.96-.3,1.07-.11-.41-.28-.8-.5-1.17-.61-1.14-1.71-1.96-2.41-3.07-.34-.5-.92-2.27-.39-2.76h0Z"/>
            </g>
          </g>
          <path class="cls-3" d="m1023.54,236.23c-.14,2.7-2.44,4.78-5.15,4.64-2.7-.14-4.78-2.44-4.64-5.14.13-2.7,2.43-4.78,5.14-4.65,2.7.14,4.79,2.45,4.64,5.15Z"/>
        </g>
        <path class="cls-23" d="m1132.58,364.91s29.75,41.2,34.93,62.43c3.41,13.95-20.91,45.37-40.55,50.91-10.73,3.03-10.98-110.56,5.61-113.34Z"/>
        <path class="cls-1" d="m1132.58,364.91s29.75,41.2,34.93,62.43c3.41,13.95-20.91,45.37-40.55,50.91-10.73,3.03-10.98-110.56,5.61-113.34Z"/>
        <path class="cls-1" d="m1102.51,327.37l16.91,2.25s27.09,55.34,33.81,113.59c-7.19,47.81-22.51,119.85-40,125.02-59.27,17.53-121.14-10.03-121.14-10.03l-28.34-113.18c76.14-29.64,37.66-116.66,37.66-116.66l15.99-3.83s52.26,46.97,85.11,2.82Z"/>
        <g>
          <path class="cls-13" d="m996.69,1484.7c22.53,5.23,44.8-.8,44.8-.8l-22.8-15.3s-23.79-32.71-27.92-44.01c-2.65-7.24-2.15-30.21-2.15-30.21h-29.3l-1.04,16.36-12.11,24.21s-1.69,11.67,19.41,15.29c0,0,13.95,17.59,31.12,34.47Z"/>
          <path class="cls-17" d="m1018.69,1468.6c-8.07,3.21-21.98,3.35-28.73-4.3-27.19-30.85-31.69-53.56-31.69-53.56-15.61,15.22-12.53,28.89-12.53,28.89l.75,5.62,5.81,43.29h3.02l10.4-34.86,18.36,33.99c48.15,9.25,60.51-3.22,60.51-3.22l-25.9-15.84Z"/>
        </g>
        <path class="cls-13" d="m952.09,1059.58l64,18.95s-24.64,301.25-27.48,315.85c0,0-29.38,8.3-29.3,0,.16-20.05-25.66-143.22-27.92-174.62-3.88-53.96-18.55-90.15,20.7-160.18Z"/>
        <g>
          <path class="cls-13" d="m1009.27,371.62c1.52,24.37-11.22,48.3-35.6,49.8-24.37,1.52-87.75-9.62-72.55-28.75,29.85-37.59,47.93-56.45,72.3-57.96,24.38-1.52,34.35,12.52,35.85,36.9Z"/>
          <path class="cls-13" d="m990.68,407.07l-15.51-41.82-45.39-6.11s-109.95,96.91-124.68,127.76c-15.69,32.88,13.42,23.21,25.48,20.68,0,0,145.5-76.07,160.1-100.51Z"/>
          <path class="cls-13" d="m802.59,508.06s54.79,77.06,105.8,120.96c0,0,21.99-2.19,15.02-14.18-11.85-20.36-60.6-115.73-72.58-136.17-6.75-11.49-48.25,29.39-48.25,29.39Z"/>
          <path class="cls-13" d="m923.41,614.84l12-.25,28.34-12.82c-.13,15.9,1.49,32.09,1.49,32.09,14.39,15.29,23.05,27.27,23.05,27.27,5.64,5.2-.64,8.08-.64,8.08-10.57-3.14-30.53-18.68-30.53-18.68,9.98,10.32,29,25.04,29,25.04,3.86,5.11-2.57,6.64-2.57,6.64-15.2-.38-32.78-22.95-32.78-22.95,6.37,8.73,24.48,23.83,24.48,23.83.79,4.55-1.77,4.29-1.77,4.29-12.1,1.55-28.95-20.21-28.95-20.21l6.52,7.98c9.91,10.13.79,11.2.79,11.2l-6.01-4.5c-18.08-14.02-24.96-31.87-24.96-31.87l-12.49-20.95,15.02-14.18Z"/>
        </g>
        <path class="cls-36" d="m1097.51,149.79l-39.81-43.51c47.29-16.06,75.57,31.8,75.57,31.8l-8.94,11.7s-17.04-38.66-26.81,0Z"/>
        <path class="cls-1" d="m1151.21,890.19c6.71-79.46,8.86-175.53-11.88-227.39,0,0-188.27,12.35-206.17,55.4,0,0-9.1,49.77-1.54,171.99,0,0,131.05,31.48,219.59,0Z"/>
        <path class="cls-11" d="m955.89,294.84c0,27.1,52.99,50.14,87.94,58.21-1.53-31.91-1.58-55.94-1.58-55.94-3.38-61.13-1.52-83.79,4.04-126.08,4.33-33.02,28.28-46.32,51.23-21.24-.93-1.02-1.15-4.53-1.6-5.91-.69-2.12-1.52-4.18-2.47-6.19-8.02-16.86-24.36-28.83-42.07-33.93-6.36-1.83-12.55-2.38-19.1-1.66-21.84,2.38-48.84,17.75-59.8,36.89-10.74,18.77-13.15,42.41-14.9,63.57-.99,11.98-1.79,24.22-1.57,36.24,0,0,.42,22.86-.12,56.05Z"/>
      </g>
      <g>
        <path class="cls-18" d="m778.72,134.43s25.92,23.9,23.14,101.54v234.91s1.53,24.06,21.47,39.98c0,0-170.32,50.04-184.85-26.33v-243.66s-7.91-102.52,31.57-120.94c0,0,69.86-28.8,108.67,14.49Z"/>
        <path class="cls-13" d="m797.69,335.84c35.27,16.88,16.41,56.75,16.41,56.75l-45.86,166.9s-42.85,17.52-118.04,8.75c-10.44-14.95-31.91-77.56-39.09-125.37-5.92-39.38-24.32-78.17-4.28-100.13,7.68-8.41,66.19-16.82,66.48-18.2l69.07-.28,55.3,11.57Z"/>
        <path class="cls-44" d="m746.85,761.1s-22.29,184.63-93.57,289.27c0,0-33.23,55.86-73.73,13.37,0,0-6.49-300.66,44.21-393.66,0,0,144.88-7.15,123.1,91.03Z"/>
        <path class="cls-44" d="m642.22,329.62c-24.4-.68-56.84,23.42-57.52,47.84-.68,24.41,12.62,87.38,31.21,71.55,36.55-31.12,54.78-49.84,55.46-74.25.68-24.41-4.75-44.45-29.16-45.13Z"/>
        <path class="cls-44" d="m597.5,367.06l44.55-1.96,23.25,39.47s-46.58,138.96-69.29,164.52c-24.2,27.23-26.59-3.34-28.95-15.45,0,0,13.59-163.63,30.43-186.57Z"/>
        <g>
          <g>
            <path class="cls-44" d="m599.33,1479.05c-22.8,3.89-44.68-3.46-44.68-3.46l23.67-13.93s25.69-31.24,30.48-42.28c3.07-7.07,3.94-30.02,3.94-30.02l29.25,1.73.07,16.39,10.65,24.89s.98,11.74-20.28,14.1c0,0-14.96,16.74-33.1,32.57Z"/>
            <path class="cls-40" d="m578.32,1461.66c7.87,3.68,21.75,4.65,28.93-2.6,28.98-29.18,34.8-51.59,34.8-51.59,14.68,16.12,10.8,29.59,10.8,29.59l-1.09,5.56-8.36,42.86-3.01-.18-8.32-35.42-20.34,32.84c-48.62,6.38-60.21-6.8-60.21-6.8l26.8-14.28Z"/>
          </g>
          <path class="cls-44" d="m579.54,1063.73s30,311.11,33.2,325.63c0,0,29.54,10.03,29.25,1.73-.65-20.04,28.47-148.23,30.38-179.66,3.05-50.45-5.16-84.04-31.41-151.86,0,0-48.29-33.48-61.42,4.15Z"/>
        </g>
        <path class="cls-21" d="m678.91,557.33c-5.6-1.02-28.7,10.91-28.7,10.91,0,0-28.85,92.71-30.09,106.81-1.25,14.09,95.71,87.07,204.02,45.52,0,0-50.15-130.56-53.22-162.71-3.06-32.16-92.02-.52-92.02-.52Z"/>
        <path class="cls-38" d="m650.21,568.24s-27.66,83.61-30.09,106.81c-8.63,82.14,102.51,116.59,210.82,75.03,0,0,7.02-112.93-60.02-192.23,0,0-17.8,16.24-120.71,10.39Z"/>
        <path class="cls-13" d="m752.61,811.02l78.32-43s-12.7,247.82-22.63,317.43c0,0-43.82,12.2-57.39,3.18-40.63-95.3-64.16-302.21-64.16-302.21l65.86,24.61Z"/>
        <path class="cls-13" d="m800.07,695.5s37.59,10.85,29.81,80.49c-7.6,68.02-132.7,74.48-144.38,4.74-12.57-75.04,48.31-114.81,114.57-85.23Z"/>
        <path class="cls-13" d="m747.24,329.62h-75.39c3.43-10.98,10.53-39.39-.46-58.73l76.16-50.01s-13.54,83.93-.32,108.74Z"/>
        <path class="cls-26" d="m677.27,296.66c.21-8.41-1.18-17.49-5.87-25.77l76.16-50.01s-5.52,34.2-6.08,65.4c-27.5,8.74-38.82,12.13-64.21,10.38Z"/>
        <g>
          <path class="cls-13" d="m659.68,277.74l-4.57-11.12-11.45-32.82c-1.61-5.22-2.61-12.42-1.06-17.68,1.86-6.32,3.04-16.53.14-27.73-7.75-30,4.91-46.51,4.91-46.51,16.29-28.77,58.04-30.76,58.04-30.76,51.77.06,58.52,49.84,58.52,49.84,9.98,32.84-15.13,61.8-15.18,61.85-3.18,3.66-3.25,9.35-4.65,13.75-1.5,4.71-3.89,9.14-6.94,13.02-6.83,8.7-15.9,17.14-25.38,22.59-8.99,5.17-26.62,10.9-39.32,11.41-5.27.21-10.44.54-13.05-5.84Z"/>
          <path class="cls-18" d="m744.23,242.38c-.93-23.59-1.45-22.11-1.45-22.11-.9-6.87-13.66,8.68-13.84-.31-.81-41.14-16.73-59.94-22.72-62.8-16.29-7.76-33.13-9.39-46.27-6.36-20.59,4.75-18.39,32.36-18.39,32.36-22.84-100.34,91.71-73.73,91.71-73.73,55.72,11.64,52.69,63.75,52.69,63.75,9.57,55.3-43.59,90.12-43.59,90.12l1.87-20.92Z"/>
          <g>
            <path class="cls-4" d="m740.21,234.54c1.92,1.32,4.33,2.02,7.28,1.81,7.99-.52,14.25-8.34,13.97-17.45-.28-9.09-6.96-16.06-14.94-15.54-3.79.25-7.18,2.14-9.67,5.03-3.64,4.21-3.38,11.63-2.22,16.68.93,4.04,2.71,7.47,5.58,9.46Z"/>
            <g>
              <path class="cls-45" d="m743.72,212c.22-4.8,10.13-.73,8.8,2.04-.77,1.59-2.41,2.82-3.67,3.96-1.75,1.58-2.58,2.98-2.71,5.38-.02.27-.04,1.11.26,1.28,1.29.8,5.16-4.07,6-5.1,1.67-2.03,1.74-5.34.76-7.7-1.02-2.5-2.76-3.61-5.47-3.3-2.17.23-4.38.5-4.11,3.19.01.05.12.5.14.25h0Z"/>
              <path class="cls-45" d="m747.07,216.8c-1.07-.95-1.98-.07-2.97.72-.92.75-1.39,1.77-1.59,2.9-.42,2.52.08,5.82,1.61,7.92,1.23,1.69,3.22,2.66,5.32,2.49,2.91-.23,3.64-2.84,3.62-5.31,0-.65-.03-2.22-.69-2.59-.72-.41-1.16.7-1.6,1.19-.62.64-1.56.94-2.42,1.05-1.65.22-3.32-.54-4.42-1.71-.19-.21-.38-.46-.48-.73.08,1.61.18,1.96.3,1.07.11-.41.28-.8.5-1.17.61-1.14,1.71-1.96,2.41-3.07.34-.5.92-2.27.39-2.76h0Z"/>
            </g>
          </g>
          <path class="cls-3" d="m739.91,236.23c.14,2.7,2.44,4.78,5.15,4.64,2.7-.14,4.78-2.44,4.64-5.14-.14-2.7-2.43-4.78-5.14-4.65-2.7.14-4.79,2.45-4.64,5.15Z"/>
        </g>
        <path class="cls-20" d="m660.94,327.37l-14.66,2.25s-28.45,54.99-35.16,113.25c7.19,47.81,21.61,120.2,39.09,125.37,59.27,17.53,121.14-10.03,121.14-10.03l28.34-113.18c-76.14-29.64-37.66-116.66-37.66-116.66l-15.99-3.83s-56.55,41.47-85.11,2.82Z"/>
        <path class="cls-20" d="m630.87,364.91s-29.74,41.2-34.93,62.43c-3.41,13.95,20.91,45.37,40.55,50.91,10.73,3.03,10.98-110.56-5.62-113.34Z"/>
        <g>
          <path class="cls-13" d="m766.76,1484.7c-22.54,5.23-44.8-.8-44.8-.8l22.8-15.3s23.79-32.71,27.92-44.01c2.65-7.24,2.14-30.21,2.14-30.21h29.31l1.04,16.36,12.11,24.21s1.68,11.67-19.41,15.29c0,0-13.95,17.59-31.12,34.47Z"/>
          <path class="cls-40" d="m744.76,1468.6c8.07,3.21,21.97,3.35,28.73-4.3,27.19-30.85,31.69-53.56,31.69-53.56,15.61,15.22,12.52,28.89,12.52,28.89l-.75,5.62-5.8,43.29h-3.02l-10.41-34.86-18.36,33.99c-48.15,9.25-60.51-3.22-60.51-3.22l25.91-15.84Z"/>
        </g>
        <path class="cls-13" d="m811.36,1059.58l-64,18.95s24.64,301.25,27.48,315.85c0,0,29.38,8.3,29.31,0-.16-20.05,25.66-143.22,27.92-174.62,3.88-53.96,18.55-90.15-20.7-160.18Z"/>
        <path class="cls-38" d="m829.78,718.2l12.64,297.89s-162.27,37.55-274.93-13.95c0,0,10.3-254.83,56.12-339.34,0,0,196.98-18.23,206.17,55.4Z"/>
        <path class="cls-13" d="m755.72,353.29c-13.77,20.16-6.02,39.72,5.12,61,11.32,21.64,80.33,36.61,77.05,12.41-6.43-47.57-11.3-74.66-32.49-86.79-17.97-10.29-35.93-6.8-49.68,13.38Z"/>
        <path class="cls-13" d="m753.57,393.25l34.71-28,42.13,17.97s44.93,139.5,41.81,173.55c-3.33,36.27-23.39,13.08-32.48,4.74,0,0-86.13-139.79-86.18-168.26Z"/>
        <path class="cls-13" d="m871.4,554s5.48,98.19-9.53,163.81c0,0-19,11.29-20.5-2.5-2.55-23.43-22.22-138.79-17.23-179.7,1.62-13.22,47.26,18.39,47.26,18.39Z"/>
        <path class="cls-13" d="m853.02,798.16s-5.11,2.5-1.66-9.49l4.05-18.71s-4.06,31.17-14.72,37.1c0,0-1.9,1.74-3.96-2.39,0,0,9.03-26.56,8.98-37.36,0,0-2.35,32.48-14.36,41.82,0,0-6.09,2.59-6.01-3.82,0,0,9.23-22.99,10.07-41.27,0,0-7.17,31.74-13.82,40.54,0,0-6.77,1.41-5.31-6.13,0,0,5.16-19.02,9.09-40.93,0,0-12.4,10.49-21.84,5.59l28.02-40.89,9.82-6.91,20.5,2.5,2.39,24.27s1.45,25.41-6.09,49.27c0,0-1.98,6.05-5.16,6.81Z"/>
        <polygon class="cls-30" points="624.63 469.89 685.48 603.81 561.6 592.38 505.75 460.95 624.63 469.89"/>
        <path class="cls-44" d="m525.37,502.41c2.36,4.34,4.88,8.27,8.68,11.28,4.32,3.42,11.54,2.38,14.32,4.88,4.85,4.35,1.41,16.1-8.82,27.89-8.87,10.23-15.41-3.16-18.39-11.39-4.41-12.16-4.12-17.59.91-27.41l3.3-5.24Z"/>
      </g>
    </g>
  </g>
</svg>