<?xml version="1.0" encoding="UTF-8"?>
<svg id="Layer_2" data-name="Layer 2" xmlns="http://www.w3.org/2000/svg" viewBox="0 0 288 288">
  <defs>
    <style>
      .cls-1 {
        fill: #fff;
      }

      .cls-2 {
        fill: #1c1c1c;
      }

      .cls-3 {
        fill: #fc862b;
      }

      .cls-4 {
        fill: #162843;
      }
    </style>
  </defs>
  <g id="BG">
    <rect class="cls-1" width="288" height="288"/>
  </g>
  <g id="Layer_1-2" data-name="Layer 1">
    <path class="cls-3" d="m252,36s-52.06,2.98-87.9,39c0,0-34.17-10.77-59.05,36.91l35.62-1.64c-2.81,6.76-5.09,14.16-6.74,22.21l21.57,21.57c8.08-1.65,15.49-3.94,22.27-6.76l-1.64,35.61c47.68-24.9,37.05-59.23,37.05-59.23,35.8-35.83,38.8-87.67,38.8-87.67Zm-63.52,46.71c4.62-4.62,12.12-4.62,16.69-.03,4.62,4.62,4.62,12.1,0,16.72s-12.08,4.58-16.69-.03c-4.58-4.59-4.58-12.07,0-16.66Z"/>
    <path class="cls-2" d="m219.95,220.44c-36.42,36.42-92.32,41.29-134.01,14.76l10.53-10.55,5.75-5.74,46.51-46.51,15.91,15.91-39.36,39.36c27.54,6.07,57.45-1.59,78.88-23.01,15.7-15.72,24.03-36,24.94-56.59l20.98-20.98c5.34,32.95-4.74,67.95-30.15,93.36Z"/>
    <path class="cls-2" d="m83.34,83.83c-21.42,21.43-29.08,51.34-23.01,78.88l39.36-39.36,15.91,15.91-52.26,52.26-10.54,10.53c-26.53-41.68-21.66-97.59,14.76-134.01,25.41-25.41,60.4-35.49,93.36-30.15l-20.99,20.99c-20.59.91-40.87,9.24-56.59,24.94Z"/>
    <rect class="cls-4" x="210.37" y="221.54" width="2.76" height="2.76" transform="translate(219.65 -84.44) rotate(45)"/>
    <rect class="cls-3" x="91.9" y="141.83" width="14.98" height="90.11" transform="translate(161.26 -15.54) rotate(45)"/>
  </g>
</svg>